<svg width="15" height="16" viewBox="0 0 15 16" fill="none" xmlns="http://www.w3.org/2000/svg">
<path id="c-vector" d="M14.8311 14.5156L11.2242 10.9095C12.2696 9.65436 12.7909 8.04453 12.6797 6.41486C12.5684 4.7852 11.8331 3.26116 10.6268 2.15979C9.42052 1.05843 7.83603 0.464527 6.20299 0.50164C4.56995 0.538754 3.01409 1.20402 1.85906 2.35906C0.704023 3.51409 0.0387538 5.06995 0.0016403 6.70299C-0.0354732 8.33603 0.558426 9.92052 1.65979 11.1268C2.76116 12.3331 4.2852 13.0684 5.91486 13.1797C7.54453 13.2909 9.15436 12.7696 10.4095 11.7242L14.0156 15.3311C14.0692 15.3847 14.1328 15.4271 14.2027 15.4561C14.2727 15.4851 14.3477 15.5 14.4234 15.5C14.4991 15.5 14.5741 15.4851 14.644 15.4561C14.714 15.4271 14.7776 15.3847 14.8311 15.3311C14.8847 15.2776 14.9271 15.214 14.9561 15.144C14.9851 15.0741 15 14.9991 15 14.9234C15 14.8477 14.9851 14.7727 14.9561 14.7027C14.9271 14.6328 14.8847 14.5692 14.8311 14.5156ZM1.16852 6.8552C1.16852 5.82937 1.47271 4.82658 2.04263 3.97364C2.61255 3.12069 3.4226 2.4559 4.37035 2.06333C5.31809 1.67076 6.36096 1.56805 7.36708 1.76818C8.37319 1.96831 9.29737 2.46229 10.0227 3.18766C10.7481 3.91303 11.2421 4.83721 11.4422 5.84333C11.6424 6.84945 11.5396 7.89232 11.1471 8.84006C10.7545 9.7878 10.0897 10.5979 9.23677 11.1678C8.38383 11.7377 7.38103 12.0419 6.3552 12.0419C4.98008 12.0404 3.66171 11.4934 2.68935 10.5211C1.71699 9.5487 1.17004 8.23033 1.16852 6.8552Z" fill="white" fill-opacity="0.5"/>
</svg>
