<svg xmlns="http://www.w3.org/2000/svg" width="30" height="34" viewBox="0 0 30 34" fill="none">
    <path
        d="M19.2298 8.40048L19.2372 8.40063L19.2445 8.40057C25.3696 8.34514 29.9084 13.771 29.4709 19.4833L29.4709 19.4833C29.293 21.8105 28.4447 23.8835 26.8408 25.5609C25.1264 27.351 23.3644 29.1008 21.5957 30.8571C21.2386 31.2117 20.8812 31.5666 20.5238 31.9222C19.8878 32.5481 19.1501 32.7021 18.3361 32.3752L18.3361 32.3752C17.5116 32.0442 17.0483 31.4161 16.9405 30.5078L16.9402 30.5048C16.8717 29.9557 17.0154 29.4931 17.4001 29.1072L17.4001 29.1072L17.4036 29.1036C18.6957 27.7809 19.9878 26.4598 21.2814 25.1373L21.7072 24.7019L21.7072 24.7019L21.711 24.698C21.8324 24.5711 21.9553 24.4437 22.0789 24.3156C22.6589 23.7143 23.2549 23.0965 23.7892 22.4384C24.5649 21.4909 25.0229 20.4679 25.1447 19.392C25.2665 18.3164 25.0484 17.2224 24.5265 16.138L24.5258 16.1366C23.9741 14.9997 23.2173 14.1284 22.2566 13.5546C21.297 12.9814 20.1669 12.7247 18.8993 12.7629C17.4437 12.7942 16.2225 13.3552 15.208 14.342C14.9807 14.5627 14.7546 14.7839 14.5289 15.0047C13.8493 15.6695 13.1734 16.3307 12.4794 16.964C11.7424 17.6324 10.8122 17.6979 10.0112 17.1965L10.0086 17.1949C9.17492 16.68 8.78201 15.6847 9.04866 14.7563L9.04977 14.7523C9.10631 14.5493 9.20587 14.3413 9.32814 14.1858C10.6399 12.6139 11.9937 11.151 13.6501 10.0423L13.6501 10.0423L13.6529 10.0404C15.3443 8.89186 17.2357 8.36006 19.2298 8.40048Z"
        fill="white" stroke="#39383D" />
    <path
        d="M10.6704 25.5811H10.6706C12.721 25.5676 14.6267 25.123 16.3003 23.9854C17.9485 22.8599 19.319 21.3924 20.631 19.8332L20.6316 19.8325C20.7918 19.6428 20.922 19.3407 20.9829 19.039C21.1566 18.1072 20.7179 17.2112 19.8955 16.7515L19.8901 16.7484L19.8901 16.7484C19.1109 16.2999 18.2427 16.3776 17.4925 17.0578C16.7772 17.7115 16.0957 18.3785 15.4086 19.0509C15.1948 19.2601 14.9805 19.4698 14.7645 19.6799L14.7618 19.6825C13.7193 20.6808 12.4842 21.1523 11.0733 21.23L11.0712 21.2302C6.7451 21.4501 3.97842 17.154 5.11855 13.5034C5.46928 12.3707 6.16419 11.5126 6.90159 10.7585C8.10566 9.5132 9.32213 8.26737 10.5378 7.02243C11.119 6.42715 11.7001 5.83206 12.2795 5.23734C12.572 4.92984 12.8079 4.66141 12.9252 4.3831L12.9283 4.37575L12.9284 4.37577C13.2596 3.6235 12.9842 2.57485 12.3185 2.01307C11.908 1.67101 11.4995 1.49906 11.1066 1.46446C10.7162 1.43007 10.2996 1.52751 9.8627 1.79499C9.6077 1.95703 9.38477 2.12028 9.19191 2.31357C8.66868 2.83822 8.14397 3.35984 7.6199 3.88082C6.05262 5.43885 4.49109 6.99117 2.99227 8.60161L10.6704 25.5811ZM10.6704 25.5811C4.68789 25.623 0.0917491 20.1836 0.528699 14.485M10.6704 25.5811L0.528699 14.485M0.528699 14.485C0.707315 12.2354 1.48862 10.2176 2.99223 8.60165L0.528699 14.485Z"
        fill="white" stroke="#39383D" />
</svg>